<svg xmlns="http://www.w3.org/2000/svg">
<symbol id="icon-menu-interior" viewBox="0 0 40 62" fill="none">
<g fill="#149080"><path d="M15.16 37.72c-.3 1-.2 2.19 0 3.58.5 2.59 1.7 5.97 2.4 9.65h5.08c.7-3.58 1.9-6.96 2.5-9.65.3-1.4.3-2.69 0-3.58-.3-.9-.9-1.6-2-2.3h-5.98c-1.2.7-1.8 1.4-2 2.3zM26.93 57.62H13.17c-1.3 0-2.3 1-2.3 2.19V62h18.36v-2.19c0-1.2-1-2.19-2.3-2.19zM34.02 2.19H22.34c0-1.2-1-2.19-2.29-2.19-1.3 0-2.3 1-2.3 2.19H6.09L0 27.57c.8-.5 1.6-1 2.6-1 1.39 0 2.19.8 2.89 1.4.7.6 1.2.8 1.4.8.3 0 .8-.3 1.49-.8.7-.5 1.6-1.4 2.9-1.4 1.29 0 2.19.8 2.88 1.4.7.5 1.2.8 1.5.8.1 0 .3-.1.6-.2.2-.1.5-.4.9-.6.5-.4 1.1-1 2-1.2.3-.1.6-.1.89-.1 1.3 0 2.2.8 2.9 1.4.7.5 1.19.8 1.49.8.3 0 .8-.3 1.4-.8.7-.6 1.6-1.4 2.89-1.4 1.4 0 2.2.8 2.9 1.4.29.3.59.5.89.6.2.1.4.2.6.2.3 0 .8-.3 1.4-.9.7-.6 1.59-1.4 2.89-1.4 1 0 1.8.5 2.59 1L34.02 2.19zM23.44 53.14h-6.88c-.7 0-1.1.5-1.1 1.1 0 .6.5 1.1 1.1 1.1h6.88c.7 0 1.1-.5 1.1-1.1.1-.6-.4-1.1-1.1-1.1z"/><path d="M20.05 28.76c-.1 0-.3.1-.6.2-.2.1-.4.3-.6.4v3.68h2.3v-3.58c-.5-.4-.9-.7-1.1-.7z"/></g>
</symbol>
<symbol id="icon-menu-toys" viewBox="0 0 60 60" fill="none">
<path d="M0 44l27.4 16V36.54L0 20.44v23.55zm51.3-31.52V15c0 1.81-3.5 3.32-7.7 3.32-4.3 0-7.7-1.5-7.7-3.32v-4.13c.3 1.71 3.6 3.12 7.7 3.12 4.3 0 7.7-1.5 7.7-3.32 0-1.81-3.5-3.32-7.7-3.32h-1l-5-2.92v3.12c0 1.81-3.5 3.32-7.7 3.32-2.7 0-5-.6-6.4-1.5-.2-.2-.4-.41-.7-.61-.4-.4-.6-.8-.6-1.21V4.53l-4.8 2.82h-1.1c-4.3 0-7.7 1.5-7.7 3.32 0 1.81 3.5 3.32 7.7 3.32 4.1 0 7.4-1.4 7.7-3.12V15c0 1.81-3.5 3.32-7.7 3.32-4.3 0-7.7-1.5-7.7-3.32v-2.42l-6 3.53 27.5 16.1 27.4-16-6.2-3.73zM37.7 22.75c0 1.81-3.5 3.32-7.7 3.32-4.3 0-7.7-1.5-7.7-3.32v-4.13c.3 1.72 3.6 3.13 7.7 3.13s7.4-1.41 7.7-3.13v4.13zm-5.1 14V60L60 44V20.73l-27.4 16zm-2.7-30.1c4.3 0 7.7-1.52 7.7-3.33S34.1 0 29.9 0c-4.3 0-7.7 1.51-7.7 3.32 0 1.81 3.4 3.32 7.7 3.32z" fill="#149080"/>
</symbol>
<symbol id="icon-about-us-ecology" viewBox="0 0 33 38" fill="none">
<path d="M16.5 38C25.57 38 33 30.65 33 21.66A16.4 16.4 0 0016.5 38zM4.74 16.65c0 2.55 2.07 4.5 4.54 4.5.93 0 1.86-.31 2.58-.82v.3c0 2.56 2.06 4.5 4.54 4.5a4.49 4.49 0 004.53-4.5v-.3c.73.5 1.65.82 2.58.82a4.49 4.49 0 004.54-4.5 4.43 4.43 0 00-2.58-4.09 4.43 4.43 0 002.58-4.08 4.54 4.54 0 00-7.12-3.68v-.3c0-2.56-2.06-4.5-4.53-4.5a4.49 4.49 0 00-4.54 4.5v.3a4.54 4.54 0 00-2.58-.82 4.49 4.49 0 00-4.54 4.5 4.43 4.43 0 002.58 4.08 4.61 4.61 0 00-2.58 4.1zM16.5 7.97a4.49 4.49 0 110 8.99 4.49 4.49 0 110-9zM0 21.66C0 30.65 7.42 38 16.5 38A16.4 16.4 0 000 21.66z" fill="#63D1BB"/>
</symbol>
<symbol id="icon-about-us-style" viewBox="0 0 47 27" fill="none">
<path d="M43.07 0H3.93A3.84 3.84 0 000 3.86v19.28A3.84 3.84 0 003.93 27h39.14A3.84 3.84 0 0047 23.14V3.86A3.97 3.97 0 0043.07 0zM3.03 24.73V2.77h40.54v21.96H3.03z" fill="#63D1BB"/><path d="M6.96 20.87h32.68V6.63H6.96v14.24zM23.5 8.5a5.33 5.33 0 015.35 5.24 5.33 5.33 0 01-5.35 5.24 5.33 5.33 0 01-5.35-5.24A5.27 5.27 0 0123.5 8.5z" fill="#63D1BB"/>
</symbol>
<symbol id="icon-about-us-likes" viewBox="0 0 34 27" fill="none">
<path d="M34 8.45C34 3.79 29.98 0 25.04 0c-3.5 0-6.5 1.94-8.04 4.66A9.12 9.12 0 008.96 0C4.02 0 0 3.79 0 8.45 0 17.29 15.15 27 17 27c1.96 0 17-9.62 17-18.55z" fill="#63D1BB"/>
</symbol>
<symbol id="icon-about-us-love" viewBox="0 0 35 34" fill="none">
<path d="M.3 13.95c-.4 2.08-.4 4.16 0 6.24l4.18-3.17-4.17-3.07zM24.85 1.59a17.96 17.96 0 00-15.58.4l7.64 5.53 7.94-5.93zM34.53 13.06l-4.9 3.66 5 3.66c.5-2.37.5-4.94-.1-7.32zM9.37 32.06a17.84 17.84 0 0016 .1l-8.26-6.04-7.74 5.94zM8.05 14.25L1.73 9.7c-.3.7-.61 1.38-.81 2.08l5.4 3.95 1.73-1.48zM18.94 24.83l8.46 6.14c.3-.2.61-.4.81-.6.3-.2.61-.49.92-.79l-8.45-6.13-1.74 1.38zM11.61 11.58L4.07 6.14c-.5.5-.91 1.09-1.32 1.68l7.03 5.14 1.83-1.38zM22.5 22.16l8.26 6.04c.5-.5.92-1.09 1.32-1.68l-7.84-5.74-1.73 1.38zM15.18 8.9L7.33 3.18c-.2.1-.4.3-.6.4-.42.3-.82.59-1.13.98l7.84 5.64 1.74-1.28zM26.07 19.4l7.13 5.14c.3-.7.62-1.29.92-1.98L27.91 18l-1.84 1.38zM26.89 2.67L.92 22.37c.2.68.5 1.38.81 2.07l27-20.48c-.52-.5-1.13-.89-1.84-1.29zM31.27 6.53c-.3-.4-.61-.79-.92-1.09L2.85 26.22c.2.5.51.89.82 1.19.1.2.3.4.4.5l27.7-20.78c-.2-.2-.3-.4-.5-.6zM32.9 8.9L5.7 29.49c.51.5 1.12 1 1.74 1.39l26.48-19.98c-.3-.7-.61-1.39-1.02-1.98z" fill="#63D1BB"/>
</symbol>
<symbol id="icon-about-us-support" viewBox="0 0 55 23" fill="none">
<path d="M40.95 5.75c-3.64-1-7.89-1.69-12.54-1.69-2.93 0-5.56.2-7.79.6L13.75 0H.1l5.87 6.15h8.49C9.8 7.73 7.58 9.62 7.58 9.62v3.76s2.33 1.89 6.98 3.47h-8.7L0 23h13.65l6.87-4.66a49.05 49.05 0 0020.32-1.09 10.14 10.14 0 01-1.92-5.85c.1-1.98.91-3.87 2.03-5.65zM44.49 6.74c-1.32 1.59-2.03 3.17-2.03 4.76 0 1.59.71 3.17 2.03 4.76C50.96 14.08 55 11.5 55 11.5s-4.04-2.58-10.51-4.76z" fill="#63D1BB"/>
</symbol>
<symbol id="icon-about-us-wrap" viewBox="0 0 33 32" fill="none">
<path d="M3.03 32h12.61V18.27H3.03V32zM31.39 8.7h-7.37c.5-.3 1-.5 1.41-.8 1.62-1.09 2.42-2.57 2.42-3.95 0-1.18-.6-2.17-1.41-2.86A4.72 4.72 0 0023.41 0c-1.2 0-2.42.4-3.33 1.09a10.36 10.36 0 00-3.43 4.05c0 .1-.1.2-.1.2-.3-.6-.6-1.2-1-1.78a8.5 8.5 0 00-2.53-2.47C12 .49 10.9 0 9.69 0S7.37.5 6.46 1.28a4.39 4.39 0 00-1.41 3.07c0 .69.2 1.48.6 2.17.6.89 1.41 1.58 2.63 2.17H1.6C.71 8.7 0 9.4 0 10.27v5.83h15.54V8.7h1.92v7.4H33v-5.83c0-.89-.7-1.58-1.61-1.58zM8.89 6.41c-.61-.4-1.02-.79-1.22-1.09-.2-.4-.3-.69-.3-.98 0-.5.2-1 .7-1.49.4-.4 1.01-.69 1.62-.69.7 0 1.41.2 2.02.7a7.6 7.6 0 012.62 3.15c.3.7.6 1.39.8 2.08-3.12-.3-5.14-.99-6.25-1.68zm10.59-1.58a6.84 6.84 0 011.91-1.88c.71-.5 1.42-.69 2.02-.69.6 0 1.11.2 1.52.5.4.3.6.69.6 1.18 0 .5-.3 1.28-1.51 2.07-1.11.8-3.13 1.68-6.16 2.28.3-1.19.91-2.47 1.62-3.46zM17.46 32h12.61V18.27H17.46V32z" fill="#63D1BB"/>
</symbol>
<symbol id="icon-instagram" viewBox="0 0 22 22">
<path d="M22 12.58c0-2.37-.3-4.75-.3-7.03 0-.8-.1-1.48-.2-2.28-.1-.3-.1-.69-.2-1.09-.3-.2-.2-.59-.5-.79-.41-.2-1.22-.1-1.72-.2-.7 0-1.3-.1-1.91-.2-1.91-.1-4.03-.1-6.04-.1S7.1.8 5.39.5H3.18c-.1 0-.1.1-.2.1-.6 0-1.11.2-1.61.3-.2.1-.4.2-.7.3-.1.2-.51.1-.61.39-.2.2.2.5 0 .6v.89c.2.1 0 .59.1.79v.99c0 1.29.1 2.38.1 3.66.5 2.78.4 6.44.1 9.31.2.6.4 1.1.5 1.69.3.5.3 1.09.7 1.48.51.2 1.22.2 1.92.2.4.1.7.3 1.1.3 2.83-.2 5.54-.2 8.46-.2 2.72.2 5.84.2 8.36-.2.2-.1.1-.5.2-.79-.1-.4.2-.4.2-.8.2-2.07.2-4.45.2-6.93zM8.92 6.44c.8-.2 1.5-.3 2.41-.3.7.1 1.3.3 1.91.5.1.2-.2.5.2.7.1 0 .1 0 .2.1.4 0 .81.2 1.11.39.5.1.5.5 1.11.4-.1.2-.1.5-.1.79.3 1.19.5 2.77.3 4.26-.2.2-.2.4-.3.7-.3.29-.5.78-.8 1.08-.1.2-.3.4-.5.5-.11.2-.21.5-.51.5-.3.19-.6 0-.8-.1-.41.2-.91.29-1.22.59l-2.41-.3c-.2-.1-.5-.3-.8-.3-.2-.2-.5-.4-.81-.5-.1-.1-.3-.1-.5-.2-.2 0-.2-.19-.5-.19-.1-.4-.41-.6-.51-1.09-.2-.3-.3-.8-.5-1.19 0-1.38.1-2.67.4-3.76.3-.6.8-1.1 1.1-1.69.2 0 .4-.1.4-.3.31.1.41-.1.71-.1.2 0 .2-.29.4-.49zM7.2 3.77c-.1-.3-.1-.7-.1-1.1 0-.29.3-.29.3-.49 0-.1-.1-.1-.2-.1.1-.1.7-.1.81 0 .1.5-.4.5-.5.7 0 .2.3 0 .5.1 0 .89-.1 1.48 0 2.18h-.5c0 .2.2.2.5.2-.1.3.1.4.1.59-.2.2-.7 0-1.1.1 0-.6.3-1.39.2-2.18zm-.7-1.59c.1 0 .1 0 .2.1.2.3 0 .7-.1.9-.2-.2 0-.7-.1-1zm.2 1.79c-.1-.1-.2-.2-.2-.5.2.1.2.3.2.5zm0 1.38c-.1.1-.1 0-.1-.2.1-.1.1.1.1.2zm-.2.2c.2 0 .1.2.2.2 0 .2-.3.2-.4.1.1-.1.2-.2.2-.3zM4.18 4.36c0-.1 0-.2-.1-.2-.1-.69.1-1.38 0-1.98.3-.2.8 0 1.11-.1v1.1c-.1.1-.2.1-.4.1-.1.3.3.1.4.3 0 .88-.1 1.77.2 2.37-.6-.1-.9.1-1.4.1.1-.6 0-1.39.5-1.59 0-.1-.3 0-.3-.1zm-.5 0c-.2 0-.2-.5-.1-.6.3 0 .2.5.1.6zm-.2 1c.1-.3 0-.3.1-.7.2 0 .2.8-.1.7zm.2-2.09c-.3.1-.3-.3-.2-.4.3 0 .4.3.2.4zm0-1.09c0 .2-.1.2-.1.3-.2 0-.1-.2-.2-.2.1-.1.2-.1.3-.1zm-.2 3.67c.1 0 .1.3-.1.2.1 0 .1-.1.1-.2zm-.7-3.67c0 .3-.4.3-.4 0h.4zm-1.01.1c0 .2-.3.2-.4.4-.2-.2.1-.5.4-.4zm-.4.7c.2-.2.5-.4.7-.6 0-.1.1-.1.1-.2h.2c.1.4-.3.3-.3.5 0 .1-.1.1-.1.2 0 .3.1.6.1.99-.3 0-.3.3-.6.2 0-.4-.2-.6-.1-1.1zm.1 3.27V4.66c.2-.2.4-.4.6-.5.3.5.2 1.4.5 1.89-.4.1-.8.1-1.1.2zm18.32 11c-.1.98-.2 1.97-.4 2.76-2.93.1-6.05 0-8.96.2-.2 0-.3 0-.2-.2-.3 0-.3.2-.5.2.2-.3.4-.89.2-1.29-.81 0-.81.8-1.12 1.3-.7-.1-1.1.1-1.8.1.2-.7.7-1 .9-1.7-.4-.49-1 .1-1.2.5-.21.5-.61.8-.81 1.29H4.89c.2-.5.5-.9.8-1.39.2-.5.6-.69.7-1.38-.2-.3-.4 0-.7 0-.1.2-.3.3-.4.5-.2.39-.5.69-.7 1.08-.2.2-.3 0-.5.2-.4.3-.61.7-1.01.99-.2-.1 0-.4.2-.4 0-.2-.1-.5.1-.59.1-.4.2-.6.4-.9.1-.69.5-1.18.7-1.87-.6.1-.7.6-1 .99-.2.4-.5.79-.7 1.28-.2-.1 0-.59-.1-.79.1-.6.3-1.09.4-1.68.1-.2.2-.5.2-.8.2-.2 0-.59-.1-.79-.2 0-.4.1-.5.3-.2 0-.2.5-.3.3 0-2.58-.51-4.76-.51-7.33 0-.3-.2-.4-.2-.7 1.6 0 3.12.1 4.83.2-.1.1-.2.3-.3.4-.1.1-.2.2-.4.3-.6 1.68-1.01 3.96-.6 6.14.2.6.6.99 1 1.38.9.5 1.6 1.1 2.51 1.69 1.72.4 3.83.4 5.54 0 .2-.1.5-.2.7-.4 1.41-1.19 2.82-2.47 3.02-4.85V10.9c-.2-1.58-.7-2.87-1.7-3.57.3-.2 1.1 0 1.7.1h.7c.41 0 .91-.1 1.42 0 .1.2.1.5.2.8-.1 1.68-.2 3.27-.2 5.05.1.5.1.99.2 1.39-.2.79-.3 1.68-.5 2.57zm.4-11.1c-.6-.1-1.21-.3-1.91-.4.1-.3.8 0 1-.2.4-.2.3-.89.3-1.48 0-.3.1-.6.1-1.1-.4-.98-1.8-.39-2.91-.49-.2.7-.5 1.78-.3 2.68.2.5 1 .3 1.5.5-.1.29-.7.09-1 .09-.3-.1-.7-.1-1-.2-2.32.1-4.34 0-6.55.2.1-1.19.1-2.48-.1-3.57h3.12c-.3.4-.9.5-1.31.8-.4.2-.9.5-1.1.89.2.1.5-.2.8-.4.4-.1.5-.4.8-.5.4-.39 1.11-.59 1.71-.89.4 0 .7 0 1.01.1 1.3 0 2.52.1 3.83.1.6.1 1.5.1 2 .3l.31.9c-.1.98-.3 1.77-.3 2.67zm-5.94-3.67c.1-.1 0-.1 0 0zm0 0c-.5.2-1 .3-1.4.7.5-.2 1.1-.3 1.4-.7zm1.1.6c.1-.1 0-.1 0 0zm-1.8.89c.7-.2 1.2-.6 1.7-.9-.4 0-.6.3-1 .4-.1.2-.5.2-.7.5zm-.7-.8c-.11 0 .1.1 0 0zm-.61.6c.1-.1 0-.1 0 0zm-.1.1c.1 0 .1-.1 0 0 0-.1 0-.1 0 0zm-.1 0c.1 0 .1 0 0 0 0-.1 0 0 0 0zm-.81.6c.3-.1.6-.3.8-.6-.3.2-.6.4-.8.6zm2.32.98c.5 0 .7-.4 1.2-.5.3-.29.8-.39 1.01-.78-.6 0-.8.4-1.2.49-.31.4-.81.5-1.01.8zm-2.32-.99c-.3 0 0 .3 0 0zm-.6.4c.1 0 .2 0 0 0 .1-.1 0 0 0 0zm2.92.6c-.2.1 0 .1 0 0zm-1.21 1.78c-.2-.2-.7-.2-1-.4-.71 0-1.22.1-1.72.2-.3.2-.6.3-.9.5-.3.2-.4.39-.81.49-.2.2-.4.5-.7.6 0 .2-.2.29-.3.39-.1.1-.1.3-.2.4 0 .1 0 .3-.11.3a18 18 0 00.7 4.15c.3.6 1.01.8 1.41 1.29.6.3 1.31.4 2.12.5.3-.1.6-.1.9-.1 1.21-.2 2.12-.7 2.82-1.39.1-.3.3-.5.5-.7-.3-.69.3-1.08.5-1.58 0-1.29-.2-2.47-.6-3.37-.3-.6-.9-.79-1.4-1.09-.1 0-.2 0-.2-.1-.2-.1-.71-.2-1.01-.1zm-3.42 4.35c-.1-.1-.1-.2-.2-.4.3-.1.2.2.2.4zm.1.3c0-.1.1 0 0 0 0 .2 0 .1 0 0zm.4-2.08c0-.1.1 0 0 0 .1.1 0 .1 0 0zm1.71-2.08c-.2.3 0 .6.1.8-.3 0-.6-.8-.1-.8zm.4 3.86c-.1 0 0 0 0 0 .1 0 0 .1 0 0zm.7 2.88c0-.1.1 0 .2 0 0 .1-.2.1-.2 0zm2.22-2.48c-.2-.1-.1.2-.4.2.1-.2.1-.3.2-.5.2 0 .3.1.2.3zm-1.1-3.76c.2.1.4.2.6.4.1.2.2.39.4.49.1.79.2 1.48.2 2.38-.3.1-.4.3-.7.4-.8 0-1.41-.2-1.92-.5-.2-.3-.4-.5-.5-.8V9.51c.2-.2.3-.4.5-.59.2-.1.5-.2.5-.6 0-.1-.1-.1-.1-.2.2 0 .2.2.41.2.2 0 .3-.2.6-.1z"/>
</symbol>
<symbol id="icon-facebook" viewBox="0 0 15 28">
<path d="M11.7 5.25c1 0 2 0 2.7-.3.4-.8.6-1.9.6-3.01-.2 0-.1-.3-.2-.4 0-.2-.3-.2-.3-.4-.3-.21-.5-.41-.7-.61-.7-.2-1.4-.3-2.2-.5-.8 0-1.9-.1-2.6.1-2.6 0-3.99 1.1-5.29 2.4 0 .11 0 .21-.1.21-.6 1.61-.1 3.62-.2 5.63.1.4.1 1 .2 1.41-1 .3-2.2.4-3.4.5-.3.3-.2 1.11-.2 1.71.1.6.3 1.1.4 1.61.2.2.6.4.8.5.1 0 .1.1.1.1.5.3 1.5 0 2.3.1-.1 2.02.3 3.93 0 5.74 0 .3.3.4.2.8 0 1-.1 2.01.2 2.72-.3.5-.5 1-.4 1.8.1 0 .1.21.1.31-.1.5.6.2.5.7.2.5-.4.2-.4.5v.91c.5.3 1.5.2 2.3.2.9-.4 2.2-.5 2.8-1.2.5.2.9 0 1.2-.2 0-.3.3-.3.2-.7 0-.31-.2-.51-.1-.91v-2.92c-.2-2.31 0-4.93-.3-7.24.9-.1 1.9-.1 2.6-.4.4-.5.4-1.21.5-1.91.2-.2.2-.6.2-1.01.2-.2.1-.7.1-1.1-.1-.6-.2-1.31-.8-1.41-.9-.2-2 .6-3 .3 0-1.1-.3-2.32 0-3.42.8-.2 1.5-.4 2.2-.6zm-3.8 4.83c.1.3.3.5.4.7.1 0 .2 0 .2.1 1.2.1 2.2-.1 3.1-.3 0 1.01-.3 1.71-.5 2.52-.7 0-1.5.3-2 .2-.3.2-.4.5-.6.7 0 .4.1.5 0 .8-.2.11-.1.61-.2.81v1.51c.1.3-.1.3-.1.5v3.53c-.1.3.1.3.1.5v3.02c.1.3-.1.8.1.9-.1.4-.4 0-.8.1-.5.1-.9.4-1.5.4.1-.4.3-.6.3-1.1 0-.4-.39-.3-.49-.5.2-.61.6-1.11.7-1.82.2-.5.7-1.3.3-1.8-.5-.1-.5.3-.8.4 0 .1 0 .2-.1.2 0 .1 0 .2-.1.2 0 .1-.2.1 0 0 0-.1 0-.2.1-.2 0-.1 0-.2.1-.2v-.3c.4-.61.7-1.21.8-2.02.2-.3.3-.7.4-1 .2-.3.3-.9.1-1.21-.5 0-.8.3-.9.7-.3-.2.2-.4.1-.7.1-.2.2-.6.3-.8.2-.4.6-1.31 0-1.61-.4 0-.6.2-.7.5-.2.2-.4.4-.5.7-.4-.1-.1-.7-.2-1.1-.1-.5.1-.9 0-1.21-.6-.8-2-.1-3.2-.3-.1-.3-.2-1-.1-1.2 1-.1 2.5.2 3.2-.21 0-.1 0-.2.1-.2.1-.7-.3-1-.5-1.4.2-.81 0-2.02.1-3.03.2-.1.3-.4.5-.6.1-1 .7-1.5.7-2.51-.3 0-.6-.1-.6.2-.3-.1-.4.5-.5.2-.1-.5.2-.6.3-1 .6-.4 1.2-.81 1.9-1.21 1.7-.2 4.6-.4 6.1.2.1.6-.3.9-.2 1.5h-1.5c-1.1.2-2 .71-3 1.01-.2.1-.3.3-.5.4 0 .4-.2.6-.3 1-.3 1.42-.1 2.62-.1 4.03z"/>
</symbol>
<symbol id="icon-twitter" viewBox="0 0 23 20">
<path d="M22.96 4.24c-.2-.4-.88-.3-1.36-.4h-1.07c.1-.4.29-.6.48-1.01.1-.4.3-.7.2-1.31L21.5.9c.1-.1.2-.5.1-.7C21.5 0 21.3 0 21 0c-.1 0-.2.1-.2.1-.38.4-.77 1.01-1.25 1.42h-.1c-.1 0 0 0-.1.1s-.29.2-.39.2c-.29.2-.48.4-.87.5-.49-.2-1.17-.3-1.85-.4-1.16.1-2.23.2-2.91.7-.88.3-1.46 1.02-2.04 1.62 0 .3-.3.4-.4.7 0 0 0 .11-.09.11 0 .2-.1.3-.1.5 0 .1.2.41 0 .51-.77-.1-1.45-.6-2.04-1-.68-.41-1.45-.62-2.04-1.12-.68-.3-1.26-.8-1.75-1.31-.2-.3-.48-.5-.68-.91-.39-.2-.2-.91-.68-.91-.29 0-.29.2-.39.4-.1.2-.38.2-.38.5 0 0 0 .1-.1.1-.2 1.12-.49 2.03-.49 3.34.1.4.3.7.59 1.01-.4.1-.68.2-.88.5-.1 1.12.39 1.62.68 2.33.1.4.39.7.58 1.01 0 .2.2.3.3.4 0 .1.1.1.1.2s.28.2.1.2c-.4.1-.98.1-1.27.41-.1.3-.1.81 0 1.11 0 .2.29.3.29.5.48.41 1.07.72 1.55 1.12.59.2 1.17.3 1.85.4-.1.3-.3.61-.58.71-.78.4-1.75.5-2.63.7-.58 0-.97.21-1.55.21-.3.1-.88.1-1.07.2l-.2.2c-.1.4.1.71.4.91 0 .3.19.3.38.4.1.2.3.31.4.41.48.5 1.25.8 1.84 1.11.77.2 1.55.4 2.43.5.87.1 1.84.1 2.72.2h.97c.48.11 1.17.11 1.85.11.1-.1.29-.1.48-.1.49-.3 1.17-.4 1.56-.7.58-.21.97-.61 1.55-.92.88-.8 1.85-1.31 2.43-2.42.2-.2.39-.4.39-.7.29-.21.39-.51.58-.72.39-.4.68-.9.97-1.41.3-.5.59-1.11.88-1.62 0-.4.29-.5.29-.9.2-.2.2-.71.39-.91 0-.3 0-.4.1-.61 0-1.31 0-2.42-.3-3.43.59-.2 1.17-.3 1.56-.61.78.3 1.26-.1 1.07-.7zm-3.3 4.04c-.2.91-.59 1.42-.98 2.02.1.4-.1.5-.1.91-.19.3-.29.7-.38 1.01-.2.3-.3.6-.49.91-.39.5-.78 1.11-1.17 1.62-.38.6-.87 1-1.26 1.51-.39.5-.87.91-1.36 1.32-.49.2-.87.4-1.26.7-.2.1-.49.2-.68.3-.2.1-.49.1-.68.3-1.07.11-2.24.21-3.5.11-.97-.1-2.04-.2-2.92-.4-.87-.2-1.45-.71-2.23-1.01.2-.2.58-.2.97-.2 0-.2.39 0 .39-.1.3.1.3-.1.49-.1.58-.21 1.16-.31 1.65-.61.29-.1.39-.4.68-.61 0-.2.1-.3.2-.4 0-.3.19-.4.09-.81.1-.2.29-.3.29-.71-.1-.1-.1-.3-.3-.4 0-.2-.38-.1-.38-.2-.3 0-.39 0-.58-.1-.2 0-.49.1-.49-.1-.78 0-1.26-.41-1.85-.71.4-.3.98-.4 1.27-.71.48-.1 1.07-.1 1.07-.7 0-.72-.78-.72-1.27-.82-.77-.7-1.16-1.71-1.75-2.52.2-.2.59-.2.68-.4.5.1.5-.3.69-.51 0-.5-.3-.6-.59-.8-.29-.21-.48-.51-.68-.72 0-.8 0-1.71.1-2.42.1 0 .1 0 .1.1.2.4.58.8.77 1.21.49.4.88.91 1.56 1.11.48.4 1.07.61 1.55 1.01.59.3 1.17.61 1.65.91.68.2 1.07.71 1.95.6l.58-.3c.3-.5-.1-1.1.1-1.61.29-.7.78-1.01 1.26-1.52.3-.2.58-.3.78-.5.29-.1.68-.2.97-.4.39 0 .68-.1.97-.1h1.27c.19.1.48.1.68.1.19.1.38.3.68.4.77.7 1.26 1.72 1.36 3.03 0 .3.1.7.1 1.31zm.28-5.65c-.1.3-.19.7-.58.8 0-.1-.1-.1-.1-.2 0-.2.2-.2.3-.3.1-.1.2-.3.38-.3 0-.1.1 0 0 0zM14.6 5.66c.2.1.3.3.49.4.1.2.29.3.58.4 0-.2.3 0 .39-.2.2 0 .2-.2.29-.3 0-.5-.1-1.01-.39-1.31-.68-.5-1.65 0-1.36 1z"/>
</symbol>
<symbol id="icon-copyright" viewBox="0 0 27 35">
<path d="M13.6 0h-.1L0 1.4v24.7l13.5 8 13.4-8V1.4L13.6 0zM25 12.1L13.5 5.3v-.1h-.1l-.1-.1v.1L1.9 12.1v-9l11.5-1.2L25 3.1v9zM13.4 6.8l11.5 6.7-4.5 2.6-7.1-4.2v1.4l5.9 3.5-.9.5-5-3v1.4l3.8 2.3-.8.5-3-1.8v1.4l1.9 1.1-1.8 1.1L2 13.6l11.4-6.8zM1.9 15.1l11.4 6.8v1l-7.9-4.7v1.4l8 4.8v1.1l-8-4.7v1.4l8 4.8 8.1-4.9v-5.2l3.4-2v10l-11.5 6.9L1.9 25v-9.9z"/>
</symbol>
<symbol id="icon-search" viewBox="0 0 18 18">
<path d="M17.7 16.06l-3.48-3.48a7.63 7.63 0 001.53-4.7c0-4.4-3.48-7.88-7.88-7.88A7.81 7.81 0 000 7.88c0 4.4 3.48 7.87 7.88 7.87 1.73 0 3.37-.61 4.7-1.53l3.48 3.47c.2.2.4.31.82.31.6 0 1.12-.51 1.12-1.13 0-.2-.1-.5-.3-.81zM2.24 7.88a5.67 5.67 0 015.63-5.63 5.67 5.67 0 015.62 5.63 5.67 5.67 0 01-5.63 5.62 5.67 5.67 0 01-5.62-5.63z"/>
</symbol>
<symbol id="icon-cart" viewBox="0 0 21 18">
<path d="M20.19 6.86h-3.55L13.19.38c-.2-.38-.61-.48-1.02-.28-.4.19-.5.57-.3.95l3.14 5.8H5.78l3.15-5.8c.2-.38 0-.76-.3-.95A.82.82 0 007.6.38L4.16 6.86H.8c-.4 0-.81.28-.81.76 0 .38.3.76.81.76h.2l.92 2.86c-.2.1-.3.28-.3.57 0 .38.3.67.7.67L4.06 18h12.88l1.73-5.52c.4 0 .7-.29.7-.67 0-.2-.1-.48-.3-.57L20 8.38h.2c.4 0 .81-.28.81-.76s-.4-.76-.81-.76zm-4.57 9.62H5.07l-1.21-4.1h13.08l-1.32 4.1zm1.63-5.53H3.35L2.54 8.3h15.52l-.81 2.66z"/>
<symbol id="icon-tel" viewBox="0 0 25 24">
<g><path d="M17.44 24h-1.1a17.63 17.63 0 01-11.2-5.73A18.8 18.8 0 010 6.72V5.33c.1-.89.5-1.48 1.1-2.07.61-.7 1.62-1.48 2.53-1.58.7 0 1.81.5 2.22 1.09.4.49.6 1.58.8 2.37.2.88.6 1.97.5 2.76-.2 1.19-1.8 1.68-2.21 2.57a16.4 16.4 0 007.56 8.2c.8-.5 1.61-1.88 2.82-1.88.4 0 1.01.2 1.41.3.5.1.91.3 1.31.49.71.3 2.02.6 2.42 1.19.4.59.7 1.58.6 2.17-.3 1.28-2.41 2.66-3.62 3.06zM12.6 1.48A10.8 10.8 0 0123.5 12.15H25C25 5.43 19.46 0 12.6 0v1.48z"/><path d="M12.6 9.19v1.58c.8 0 1.41.59 1.41 1.38h1.62a3 3 0 00-3.03-2.96zM12.6 6.12a6.11 6.11 0 016.15 6.03h1.61c0-4.15-3.42-7.5-7.66-7.5v1.47h-.1z"/></g>
</symbol>
<symbol id="icon-mail" viewBox="0 0 32 21">
<path d="M28 0H4C1.8 0 0 1.8 0 4v13c0 2.2 1.8 4 4 4h24c2.2 0 4-1.8 4-4V4c0-2.2-1.8-4-4-4zM2 5.3l7 5.3-7 5.3V5.3zM30 17a2 2 0 01-2 2H4a2 2 0 01-2-2l7.8-5.9 4.4 3.3a3 3 0 003.6 0l4.4-3.3L30 17zm0-1.2l-7-5.3 7-5.3v10.6zm-12.8-2.2c-.4.3-.8.4-1.2.4-.4 0-.9-.1-1.2-.4l-4.1-3.1-.8-.6L2 4c0-1.1.9-2 2-2h24a2 2 0 012 2l-12.8 9.6z"/>
</symbol>
<symbol id="icon-flag" viewBox="0 0 47 81" fill="none">
<path d="M7.77 3.86v38.52L47 23.08 7.77 3.85zM0 80.9V0h3.83v80.9H0z" fill="#63D1BB"/>
  <path d="M3.83.1H0V81h3.83V.1z" fill="#231F20"/>
</symbol>
<symbol id="icon-map-pin" viewBox="0 0 67 100" fill="none">
<path d="M57.13 9.15c-13.1-12.2-34.21-12.2-47.3 0-13.1 12.2-13.1 31.95 0 44.15 0 0 23.64 21.63 23.64 46.63 0-25 23.66-46.63 23.66-46.63 13.1-12.1 13.1-31.95 0-44.15z" fill="#fff"/>
  <path d="M47.69 45.16c-.61-3.27.1-6.84 0-10.21-.1-3.77-.71-7.44-.71-11.12 0-2.97.5-6.15-.51-9.02.1-.3.1-.7.2-1 .3-1.48-4.67-.69-5.38.6-.5.4-.7.9-.5 1.29.1.1.1.2.1.4-.92 4.46-2.24 8.73-3.76 13.1-.61 1.68-1.22 3.27-1.83 4.85a67.03 67.03 0 01-2.33-4.66c-1.93-4.76-3.76-9.62-6.1-14.19.31-2.08-4.56-1.88-5.48 0-1.11 2.38-1.01 4.77-.6 7.25.4 2.87.5 5.65.5 8.53.1 5.55.51 11 .61 16.57-.5.59-.6 1.19-.1 1.88.2.3.5.5.81.8 1.32.99 4.98.2 4.98-1.8 0-5.75-.4-11.4-.61-17.15v-1.7c.1.2.2.4.2.6.91 2.19 1.83 4.37 3.15 6.45 1.22 2.09 1.83 4.27 2.54 6.45-.3.3-.41.6-.3 1-.11.29.1.39.4.49.91.8 2.64.4 3.55 0l1.22-.6c.5-.3 1.22-.99 1.01-1.58 0-.1-.1-.3-.1-.4.71-1.79 1.02-3.57 1.42-5.46.41-1.98 1.12-3.87 1.83-5.75.1.9.1 1.69.2 2.58.3 3.57 0 7.04 0 10.61 0 1.2.1 2.29.3 3.38.11.5.52 2.48.41 2.58-.9.79-.6 1.78.51 1.98 1.32.3 2.95-.1 3.96-1 1.63-1.38.81-3.76.4-5.75z" fill="#6BC6B3"/>
</symbol>
<symbol id="icon-logo-footer" width="102" height="34" viewBox="0 0 102 34">
<path d="M19.22 21.38c-.1-2.68-.5-5.27-.5-7.95 0-2.2.4-4.38-.4-6.47 0-.2.1-.5.1-.7.2-.99-3.3-.5-3.8.5-.3.3-.5.6-.4 1 0 .1.1.2.1.3-.7 3.18-1.6 6.26-2.6 9.34-.4 1.2-.9 2.3-1.3 3.48-.6-1.09-1.2-2.18-1.6-3.38-1.4-3.38-2.6-6.86-4.3-10.14.2-1.5-3.2-1.4-3.9 0-.8 1.69-.7 3.38-.4 5.17.3 1.99.4 3.98.4 6.07 0 3.97.4 7.85.4 11.83-.4.4-.5.9-.1 1.4.2.2.4.4.6.5 1 .69 3.6.09 3.6-1.3 0-4.08-.3-8.16-.4-12.33v-1.2c.1.1.1.3.2.4.6 1.6 1.3 3.18 2.2 4.67.9 1.5 1.3 3.09 1.8 4.68-.2.2-.3.5-.2.7 0 .2.1.3.3.4.6.49 1.8.3 2.5 0 .3-.1.6-.3.8-.4.3-.2.9-.7.7-1.2 0-.1-.1-.2-.1-.3.5-1.29.7-2.58 1-3.88.3-1.39.8-2.78 1.3-4.07.1.6.1 1.2.2 1.89.2 2.58 0 5.07 0 7.55 0 .8.1 1.6.2 2.5.1.29.4 1.78.3 1.88-.8.5-.6 1.1.2 1.3.9.2 2.1-.1 2.8-.7 1.2-1.1.6-2.79.4-4.18-.5-2.39 0-4.97-.1-7.36zM27.62 22.08c-.1-2-.8-3.88-.8-5.87 0-2.29.2-4.57-.2-6.86-.1-.7-4.1.1-3.9 1 .3 2.08.2 4.17.2 6.36 0 1.99.5 3.88.7 5.86.3 2.1-.1 4.18.1 6.17.1 1 .8 2.69.1 3.58-.4.5 1.5.3 1.6.3.8-.1 1.8-.4 2.3-1 .7-.8.2-2.38.1-3.38-.3-1.99-.1-4.17-.2-6.16zM43.92 18.8c-2.1-2.79-5.9-.8-8.6-1.5-1.4-.4-1.4-2.28-1.4-3.38 0-1.39-.1-2.68-.3-4.07-.1-1.1 0-2.1.7-2.89.1-.1.9-.3.8-.3.4-.1.7-.1 1.1-.1 1.5-.1 4.6.2 4 2.49-.3 1 3.6.4 3.9-.6 1.2-4.57-7.3-3.68-9.7-3.08-2.2.6-4.6 1.79-4.8 4.38-.1 1.19.3 2.38.3 3.58.1 1.39-.2 2.78.3 4.07 1.1 2.99 5.5 1.6 7.8 1.7 3.8.3 2.7 5.46 2.7 7.85 0 1.3 1.2 3.38.2 4.48-.6.7-2 .7-2.8.8-.8.1-2.2.29-2.7-.5-1-1.4.1-3.79-.1-5.38-.1-.9-4.1-.1-3.9 1 .3 2.58-1.4 6.06 2.4 6.56 2.4.3 5.2-.2 7.5-.9 1.2-.4 2.3-.89 3.2-1.78 1-.9.7-2.3.4-3.48-.5-3.09.9-6.47-1-8.95zM61.32 18.6c-.1-3.78-.7-7.46-.7-11.24 0-1.99-4-1.3-4 .3 0 3.58.5 7.16.7 10.74v.2c-1.9 0-3.9.2-5.9.2.2-4.58-.6-9.15-.4-13.83 0-.6-3.9-.1-3.9 1-.2 4.47.6 8.85.5 13.32l-.3 6.37c0 1.1.2 2.19.3 3.28.1 1 .5 2.29.2 3.28-.2.8 3.6.3 3.9-.7.5-1.79-.2-3.97-.4-5.76-.2-1.7 0-3.48.1-5.17 2-.1 4.1-.3 6.1 0l.3 4.07c.1 1.2.2 2.29.2 3.48 0 1 .1 2.49-.2 3.48-.8 2.1 3.1 1.9 3.7.4.7-1.89.5-4.17.4-6.16-.2-2.49-.6-4.88-.6-7.26zM78.22 22.97c-.9-2.78-2.4-5.17-3.6-7.75 1-1.9 2-3.88 2.9-5.87.8-1.8 1.4-3.78 3.1-5.07.6-.4.6-.9-.3-1-.9-.1-2.1.2-2.8.7-1.4 1.3-2.4 2.68-3.1 4.37-.9 2.1-1.9 4.08-2.9 6.07-.1.1-.1.3-.2.4-.5.3-.8.8-.6 1.3a66.9 66.9 0 01-2.5 4.57c-.3-5.47-1-11.04-1.2-16.51 0-1.3-4-.5-3.9 1 .2 6.85 1.2 13.62 1.3 20.48v.1c-.3.3-.2.5.1.6 0 1.78-.1 3.47-.2 5.26-.5.7.5 1.1 1.1 1.1h.1c.7 0 2.6-.3 2.7-1.4.2-2.08.3-4.17.2-6.26 1.6-1.69 2.9-3.58 4.1-5.57.8 1.5 1.5 2.99 2 4.58.9 2.68 2.3 5.27 3.1 7.95.5 1.8 4.5.7 3.9-1-1-2.78-2.4-5.26-3.3-8.05zM101.72 18.4c-.2-.8-1.4-.8-2.3-.8v-1c-.1-2.68-.2-5.36-.4-7.95-.2-2.48-1.6-3.28-4-3.18-2.4.1-5.2.5-7.5 1.4-2.6.99-4.1 2.88-4.6 5.66-.5 2.98.2 6.17.4 9.15.2 3.48.1 6.96.1 10.44 0 .6 3.9 0 3.9-1v-8.25c0-.8-.1-1.59-.1-2.38 1.4-.6 3.7 0 5.1.1 1.1.1 2.2-.2 3.2-.3 0 2.29.1 4.57.2 6.86 0 1.2.5 3.48-.4 4.47-.4.5 1.5.3 1.6.3.8-.1 1.8-.4 2.3-1 .9-1.09.5-3.77.4-5.06-.1-1.9-.1-3.78-.1-5.67 1.1-.2 2.4-.9 2.2-1.8zm-14.6-.1l-.3-3.68c-.2-2.29.1-5.57 2.3-6.96.6-.4 1.7-.3 2.4-.4 1-.2 2-.4 2.8.2 1.2.8.9 3.68.9 4.87 0 2 .2 3.98.3 5.97-.6.1-1.1.1-1.7.1-2.3-.2-4.6-.6-6.7-.1zM24.22 6.66c.5-.1 1-.2 1.5-.5l.2-.2c.5-.3 1-.79.7-1.39-.5-1.09-.4-2.18-.4-3.38 0-1-1-1.19-1.8-1.19-.7.1-2.2.6-2.2 1.5 0 .99-.1 1.98.1 2.98 0 .1-.1.2-.1.4-.1.2 0 .4.1.59v.4c.1.2.2.4.4.5.6.3 1.1.3 1.5.3z"/>
</symbol>
</svg>
