<svg width="1143" height="34" viewBox="0 0 1143 34" fill="none" xmlns="http://www.w3.org/2000/svg">
<path d="M1113.88 0C1099.58 0 1099.58 14 1085.37 14C1071.17 14 1071.07 0 1056.86 0C1042.66 0 1042.56 14 1028.35 14C1014.05 14 1014.05 0 999.741 0C985.437 0 985.437 14 971.231 14C956.927 14 956.927 0 942.721 0C928.416 0 928.416 14 914.211 14C900.006 14 899.608 0 885.403 0C871.098 0 871.098 14 856.893 14C842.687 14 842.489 0 828.283 0C813.979 0 813.979 14 799.773 14C785.469 14 785.469 0 771.164 0C756.859 0 756.859 14 742.654 14C728.349 14 728.349 0 714.144 0C699.938 0 699.74 14 685.435 14C671.13 14 671.13 0 656.925 0C642.62 0 642.62 14 628.415 14C614.11 14 614.11 0 599.805 0C585.5 0 585.5 14 571.295 14C556.99 14 556.99 0 542.785 0C528.48 0 528.48 14 514.275 14C499.97 14 499.97 0 485.765 0C471.46 0 471.46 14 457.155 14C442.85 14 442.85 0 428.546 0C414.241 0 414.241 14 399.936 14C385.632 14 385.632 0 371.327 0C357.022 0 357.022 14 342.717 14C328.413 14 328.413 0 314.108 0C299.803 0 299.803 14 285.498 14C271.194 14 271.194 0 256.889 0C242.584 0 242.584 14 228.379 14C214.074 14 214.074 0 199.769 0C185.465 0 185.465 14 171.16 14C156.855 14 156.855 0 142.551 0C128.246 0 128.246 14 113.941 14C99.6364 14 99.6364 0 85.3317 0C71.4243 0 71.4243 14 57.1196 14C42.8148 14 42.8148 0 28.6095 0C14.4041 0 14.3047 14 0 14V34H1142.39V14C1128.09 14 1128.09 0 1113.88 0Z" fill="white"/>
</svg>
